<svg width="137" height="46" viewBox="0 0 137 46" fill="none" xmlns="http://www.w3.org/2000/svg">
<g clip-path="url(#clip0_3_88)">
<path d="M112.49 4.5C112.49 2.567 110.923 1 108.99 1C107.057 1 105.49 2.567 105.49 4.5V33.5C105.49 35.433 107.057 37 108.99 37C110.923 37 112.49 35.433 112.49 33.5V4.5Z" fill="#0F172A"/>
<path d="M21.5 30H7V3.5C7 1.57 5.43 0 3.5 0C1.57 0 0 1.57 0 3.5V30.5V33.5C0 35.43 1.57 37 3.5 37H21.5C23.43 37 25 35.43 25 33.5C25 31.57 23.43 30 21.5 30Z" fill="#0F172A"/>
<path d="M90.46 12C88.3 12 86.27 12.5 84.46 13.37C83.79 12.57 82.78 12.05 81.63 12.05C79.62 12.05 78 13.62 78 15.55V42.52C78 44.45 79.63 46.02 81.63 46.02C83.63 46.02 85.26 44.45 85.26 42.52V37.07C86.86 37.71 88.61 38.07 90.45 38.07C97.92 38.07 103.99 32.23 103.99 25.04C103.99 17.85 97.92 12.01 90.45 12.01L90.46 12ZM90.5 32C86.36 32 83 28.64 83 24.5C83 20.36 86.36 17 90.5 17C94.64 17 98 20.36 98 24.5C98 28.64 94.64 32 90.5 32Z" fill="#0F172A"/>
<path d="M124.42 12.05C122.9 12.19 121.48 12.63 120.21 13.32C119.57 12.52 118.6 12 117.49 12C115.56 12 113.99 13.57 113.99 15.5V33.5C113.99 35.43 115.56 37 117.49 37C119.42 37 120.99 35.43 120.99 33.5V23.5C120.99 20.88 123.24 18.78 125.9 19.02C128.26 19.23 129.99 21.37 129.99 23.74V33.5C129.99 35.43 131.56 37 133.49 37C135.42 37 136.99 35.43 136.99 33.5V23.5C136.99 16.81 131.24 11.43 124.42 12.05Z" fill="#0F172A"/>
<path d="M70.8045 24C70.8045 19.9702 67.5484 16.7073 63.5269 16.7073C61.2395 16.7074 59.1961 17.7653 57.8555 19.4297L49.7443 31.9491L49.6627 32.0532C47.2908 35.0626 43.6074 37 39.4731 37C32.3061 37 26.5 31.1819 26.5 24C26.5 16.8158 32.3146 11.0001 39.4793 11C43.6338 11 47.3316 12.9632 49.701 15.9939C50.6709 17.2345 50.4538 19.0281 49.2159 20C47.9778 20.972 46.1873 20.7539 45.2174 19.5133C43.8784 17.8007 41.8048 16.7073 39.4793 16.7073C35.4555 16.7074 32.1955 19.9725 32.1955 24C32.1955 28.0298 35.4516 31.2927 39.4731 31.2927C41.7523 31.2927 43.7817 30.249 45.1198 28.605L53.2273 16.0936L53.3052 15.9939C55.6745 12.9633 59.3724 11 63.5269 11C70.6939 11 76.5 16.8181 76.5 24C76.5 31.1819 70.6939 37 63.5269 37C59.3926 37 55.7091 35.0626 53.3373 32.0532C52.3626 30.8163 52.5734 29.0219 53.8076 28.0452C55.0419 27.0684 56.8326 27.279 57.8073 28.5158C59.1439 30.2116 61.2065 31.2926 63.5269 31.2927C67.5484 31.2927 70.8045 28.0298 70.8045 24Z" fill="#0F172A"/>
</g>
<defs>
<clipPath id="clip0_3_88">
<rect width="137" height="46" fill="white"/>
</clipPath>
</defs>
</svg>
