<svg width="137" height="46" viewBox="0 0 137 46" fill="none" xmlns="http://www.w3.org/2000/svg">
<g clip-path="url(#clip0_3_95)">
<path d="M112.49 4.5C112.49 2.567 110.923 1 108.99 1C107.057 1 105.49 2.567 105.49 4.5V33.5C105.49 35.433 107.057 37 108.99 37C110.923 37 112.49 35.433 112.49 33.5V4.5Z" fill="url(#paint0_linear_3_95)"/>
<path d="M21.5 30H7V3.5C7 1.57 5.43 0 3.5 0C1.57 0 0 1.57 0 3.5V30.5V33.5C0 35.43 1.57 37 3.5 37H21.5C23.43 37 25 35.43 25 33.5C25 31.57 23.43 30 21.5 30Z" fill="#0F172A"/>
<path d="M90.46 12C88.3 12 86.27 12.5 84.46 13.37C83.79 12.57 82.78 12.05 81.63 12.05C79.62 12.05 78 13.62 78 15.55V42.52C78 44.45 79.63 46.02 81.63 46.02C83.63 46.02 85.26 44.45 85.26 42.52V37.07C86.86 37.71 88.61 38.07 90.45 38.07C97.92 38.07 103.99 32.23 103.99 25.04C103.99 17.85 97.92 12.01 90.45 12.01L90.46 12ZM90.5 32C86.36 32 83 28.64 83 24.5C83 20.36 86.36 17 90.5 17C94.64 17 98 20.36 98 24.5C98 28.64 94.64 32 90.5 32Z" fill="#0F172A"/>
<path d="M124.42 12.05C122.9 12.19 121.48 12.63 120.21 13.32C119.57 12.52 118.6 12 117.49 12C115.56 12 113.99 13.57 113.99 15.5V33.5C113.99 35.43 115.56 37 117.49 37C119.42 37 120.99 35.43 120.99 33.5V23.5C120.99 20.88 123.24 18.78 125.9 19.02C128.26 19.23 129.99 21.37 129.99 23.74V33.5C129.99 35.43 131.56 37 133.49 37C135.42 37 136.99 35.43 136.99 33.5V23.5C136.99 16.81 131.24 11.43 124.42 12.05Z" fill="#0F172A"/>
<path d="M71.1906 24C71.1906 19.9702 67.8694 16.7073 63.7675 16.7073C61.4343 16.7074 59.3501 17.7653 57.9826 19.4297L49.7091 31.9491L49.6259 32.0532C47.2067 35.0626 43.4496 37 39.2325 37C31.9222 37 26 31.1819 26 24C26 16.8158 31.9309 11.0001 39.2388 11C43.4765 11 47.2482 12.9632 49.665 15.9939C50.6543 17.2345 50.4329 19.0281 49.1702 20C47.9073 20.972 46.0811 20.7539 45.0917 19.5133C43.7259 17.8007 41.6109 16.7073 39.2388 16.7073C35.1346 16.7074 31.8094 19.9725 31.8094 24C31.8094 28.0298 35.1306 31.2927 39.2325 31.2927C41.5573 31.2927 43.6274 30.249 44.9922 28.605L53.2619 16.0936L53.3413 15.9939C55.758 12.9633 59.5299 11 63.7675 11C71.0778 11 77 16.8181 77 24C77 31.1819 71.0778 37 63.7675 37C59.5505 37 55.7933 35.0626 53.3741 32.0532C52.3798 30.8163 52.5948 29.0219 53.8538 28.0452C55.1127 27.0684 56.9392 27.279 57.9335 28.5158C59.2967 30.2116 61.4006 31.2926 63.7675 31.2927C67.8694 31.2927 71.1906 28.0298 71.1906 24Z" fill="url(#paint1_linear_3_95)"/>
</g>
<defs>
<linearGradient id="paint0_linear_3_95" x1="108.99" y1="1" x2="108.99" y2="37" gradientUnits="userSpaceOnUse">
<stop stop-color="#C7B8FF"/>
<stop offset="1" stop-color="#A997F4"/>
</linearGradient>
<linearGradient id="paint1_linear_3_95" x1="28.9047" y1="24.024" x2="74.0954" y2="23.9743" gradientUnits="userSpaceOnUse">
<stop offset="0.1" stop-color="#F48B95"/>
<stop offset="0.9" stop-color="#BFAEFF"/>
</linearGradient>
<clipPath id="clip0_3_95">
<rect width="137" height="46" fill="white"/>
</clipPath>
</defs>
</svg>
