<svg width="20" height="20" viewBox="0 0 20 20" fill="none" xmlns="http://www.w3.org/2000/svg">
<path d="M16.2167 6.66676L16.875 5.20843L18.3333 4.5501C18.4061 4.51695 18.4678 4.46358 18.511 4.39635C18.5543 4.32912 18.5773 4.25087 18.5773 4.17093C18.5773 4.09099 18.5543 4.01274 18.511 3.94551C18.4678 3.87828 18.4061 3.82491 18.3333 3.79176L16.875 3.13343L16.2167 1.66676C16.1835 1.59402 16.1302 1.53234 16.0629 1.4891C15.9957 1.44585 15.9174 1.42285 15.8375 1.42285C15.7576 1.42285 15.6793 1.44585 15.6121 1.4891C15.5449 1.53234 15.4915 1.59402 15.4583 1.66676L14.8 3.1251L13.3333 3.78343C13.2606 3.81658 13.1989 3.86995 13.1557 3.93718C13.1124 4.00441 13.0894 4.08266 13.0894 4.1626C13.0894 4.24254 13.1124 4.32079 13.1557 4.38802C13.1989 4.45525 13.2606 4.50862 13.3333 4.54176L14.7917 5.2001L15.45 6.66676C15.6 6.99176 16.0667 6.99176 16.2167 6.66676ZM9.58335 7.91676L8.25835 5.0001C7.96668 4.3501 7.03335 4.3501 6.74168 5.0001L5.41668 7.91676L2.50001 9.24177C1.85001 9.54177 1.85001 10.4668 2.50001 10.7584L5.41668 12.0834L6.74168 15.0001C7.04168 15.6501 7.96668 15.6501 8.25835 15.0001L9.58335 12.0834L12.5 10.7584C13.15 10.4584 13.15 9.53343 12.5 9.24177L9.58335 7.91676ZM15.45 13.3334L14.7917 14.7918L13.3333 15.4501C13.2606 15.4832 13.1989 15.5366 13.1557 15.6038C13.1124 15.6711 13.0894 15.7493 13.0894 15.8293C13.0894 15.9092 13.1124 15.9875 13.1557 16.0547C13.1989 16.1219 13.2606 16.1753 13.3333 16.2084L14.7917 16.8668L15.45 18.3334C15.4832 18.4062 15.5365 18.4679 15.6038 18.5111C15.671 18.5543 15.7492 18.5773 15.8292 18.5773C15.9091 18.5773 15.9874 18.5543 16.0546 18.5111C16.1218 18.4679 16.1752 18.4062 16.2083 18.3334L16.8667 16.8751L18.3333 16.2168C18.4061 16.1836 18.4678 16.1303 18.511 16.063C18.5543 15.9958 18.5773 15.9175 18.5773 15.8376C18.5773 15.7577 18.5543 15.6794 18.511 15.6122C18.4678 15.5449 18.4061 15.4916 18.3333 15.4584L16.875 14.8001L16.2167 13.3334C16.1825 13.2606 16.1284 13.199 16.0605 13.1558C15.9926 13.1126 15.9138 13.0897 15.8333 13.0897C15.7529 13.0897 15.6741 13.1126 15.6062 13.1558C15.5383 13.199 15.4841 13.2606 15.45 13.3334Z" fill="#667085"/>
</svg>
