<svg width="43" height="36" viewBox="0 0 43 36" fill="none" xmlns="http://www.w3.org/2000/svg">
<path d="M26.4576 0.0748525C26.9681 0.218433 27.4006 0.558868 27.6601 1.0213C27.9197 1.48374 27.9849 2.03031 27.8416 2.54085L18.9816 34.1169C18.9107 34.3698 18.7906 34.6063 18.6283 34.8128C18.466 35.0193 18.2646 35.1919 18.0356 35.3206C17.8066 35.4493 17.5545 35.5316 17.2937 35.5629C17.0329 35.5942 16.7685 35.5738 16.5156 35.5029C16.2626 35.4319 16.0262 35.3119 15.8196 35.1496C15.6131 34.9873 15.4405 34.7859 15.3118 34.5569C15.1831 34.3279 15.1008 34.0758 15.0695 33.815C15.0383 33.5542 15.0587 33.2898 15.1296 33.0369L23.9896 1.46085C24.0604 1.20769 24.1805 0.970981 24.343 0.764269C24.5054 0.557558 24.707 0.384899 24.9362 0.25617C25.1654 0.127441 25.4178 0.0451671 25.6788 0.0140548C25.9399 -0.0170574 26.2045 0.00360224 26.4576 0.0748525ZM11.8996 7.88885C12.2745 8.26391 12.4851 8.77252 12.4851 9.30285C12.4851 9.83318 12.2745 10.3418 11.8996 10.7169L4.82957 17.7889L11.8996 24.8589C12.0854 25.0445 12.2328 25.265 12.3334 25.5077C12.4341 25.7503 12.4859 26.0104 12.486 26.2731C12.4861 26.5358 12.4344 26.796 12.334 27.0387C12.2335 27.2815 12.0863 27.502 11.9006 27.6879C11.7149 27.8737 11.4944 28.0211 11.2517 28.1217C11.0091 28.2223 10.749 28.2742 10.4863 28.2743C10.2236 28.2744 9.96344 28.2227 9.7207 28.1223C9.47797 28.0218 9.25739 27.8745 9.07157 27.6889L0.585573 19.2029C0.210631 18.8278 0 18.3192 0 17.7889C0 17.2585 0.210631 16.7499 0.585573 16.3749L9.07157 7.88885C9.44663 7.51391 9.95524 7.30328 10.4856 7.30328C11.0159 7.30328 11.5245 7.51391 11.8996 7.88885ZM31.0716 10.7169C30.8805 10.5324 30.7282 10.3117 30.6234 10.0677C30.5186 9.82365 30.4634 9.56121 30.4611 9.29566C30.4588 9.0301 30.5094 8.76674 30.6099 8.52094C30.7105 8.27515 30.859 8.05185 31.0468 7.86406C31.2346 7.67628 31.4579 7.52777 31.7037 7.42721C31.9495 7.32665 32.2128 7.27604 32.4784 7.27835C32.7439 7.28066 33.0064 7.33583 33.2504 7.44065C33.4944 7.54547 33.7151 7.69783 33.8996 7.88885L42.3856 16.3749C42.7605 16.7499 42.9711 17.2585 42.9711 17.7889C42.9711 18.3192 42.7605 18.8278 42.3856 19.2029L33.8996 27.6889C33.5243 28.0639 33.0154 28.2744 32.4849 28.2743C31.9543 28.2741 31.4456 28.0631 31.0706 27.6879C30.6956 27.3126 30.485 26.8037 30.4852 26.2731C30.4854 25.7426 30.6963 25.2339 31.0716 24.8589L38.1416 17.7889L31.0716 10.7169Z" fill="#F96A84"/>
</svg>
