<svg width="51" height="51" viewBox="0 0 51 51" fill="none" xmlns="http://www.w3.org/2000/svg">
<path d="M6.2998 25.5008C6.2998 16.4504 6.2998 11.924 9.1126 9.11358C11.9254 6.30318 16.4494 6.30078 25.4998 6.30078C34.5502 6.30078 39.0766 6.30078 41.887 9.11358C44.6974 11.9264 44.6998 16.4504 44.6998 25.5008C44.6998 34.5512 44.6998 39.0776 41.887 41.888C39.0742 44.6984 34.5502 44.7008 25.4998 44.7008C16.4494 44.7008 11.923 44.7008 9.1126 41.888C6.3022 39.0752 6.2998 34.5512 6.2998 25.5008Z" stroke="#9B6DFF" stroke-width="3" stroke-linejoin="round"/>
<path d="M19.5 1.5V6.3M31.5 1.5V6.3M19.5 44.7V49.5M31.5 44.7V49.5M27.9 18.3L18.3 27.9M32.7 27.9L27.9 32.7M49.5 31.5H44.7M6.3 19.5H1.5M6.3 31.5H1.5M49.5 19.5H44.7" stroke="#9B6DFF" stroke-width="3" stroke-linecap="round" stroke-linejoin="round"/>
</svg>
