<svg width="51" height="51" viewBox="0 0 51 51" fill="none" xmlns="http://www.w3.org/2000/svg">
<path d="M36.284 22.8328L45.0035 31.5523C47.7394 34.2882 49.1073 35.6561 49.4086 37.3013C49.5286 37.9466 49.5286 38.6079 49.4086 39.2532C49.1073 40.8984 47.7394 42.2664 45.0035 45.0022C42.2677 47.738 40.8971 49.106 39.2545 49.4073C38.6092 49.5273 37.9479 49.5273 37.3027 49.4073C35.6574 49.106 34.2895 47.738 31.5537 45.0022L22.8342 36.2827M14.416 27.8645L5.9978 19.4464C3.26196 16.7105 1.89404 15.3426 1.59006 13.6974C1.46998 13.0523 1.46998 12.3906 1.59006 11.7455C1.89404 10.1002 3.26196 8.73231 5.9978 5.99647C8.73364 3.26063 10.1042 1.89271 11.7468 1.58872C12.3921 1.4714 13.0534 1.4714 13.6987 1.58872C15.3439 1.89271 16.7118 3.26063 19.4477 5.99647L28.1672 14.716M34.8335 8.16701L40.0865 2.91398C40.5347 2.4657 41.0668 2.1101 41.6524 1.86749C42.238 1.62487 42.8657 1.5 43.4996 1.5C44.1335 1.5 44.7612 1.62487 45.3468 1.86749C45.9325 2.1101 46.4646 2.4657 46.9128 2.91398L48.086 4.08725C48.5343 4.53543 48.8899 5.06753 49.1325 5.65316C49.3751 6.2388 49.5 6.86648 49.5 7.50038C49.5 8.13428 49.3751 8.76196 49.1325 9.3476C48.8899 9.93323 48.5343 10.4653 48.086 10.9135L42.833 16.1665" stroke="#FFAA33" stroke-width="3" stroke-linecap="round" stroke-linejoin="round"/>
<path d="M20.1676 6.83398L16.1678 10.8338M44.1662 30.8326L40.1664 34.8324M13.144 45.853L42.8329 16.1668L34.8334 8.16724L5.14445 37.8535C4.50431 38.4948 4.03812 39.2886 3.78986 40.16L1.54733 48.0049C1.49088 48.2054 1.48882 48.4173 1.54136 48.6189C1.5939 48.8204 1.69915 49.0043 1.84629 49.1518C1.99344 49.2992 2.17717 49.4048 2.37863 49.4577C2.58008 49.5106 2.79198 49.5089 2.99258 49.4528L10.8401 47.2103C11.7121 46.9623 12.504 46.4957 13.144 45.853Z" stroke="#FFAA33" stroke-width="3" stroke-linecap="round" stroke-linejoin="round"/>
</svg>
