<svg width="15" height="15" viewBox="0 0 15 15" fill="none" xmlns="http://www.w3.org/2000/svg">
<path d="M10.3396 1.3876C10.7212 1.00606 10.9116 0.81561 11.1235 0.723961C11.4284 0.592013 11.7735 0.592013 12.0784 0.723961C12.2896 0.81496 12.4807 1.00606 12.8623 1.3876C13.2438 1.76915 13.4343 1.96025 13.5259 2.17149C13.6578 2.47634 13.6578 2.82149 13.5259 3.12633C13.4349 3.33758 13.2438 3.52868 12.8623 3.91022L9.598 7.17448C8.79396 7.97852 8.39226 8.38022 7.88852 8.61876C7.38478 8.85731 6.81863 8.91256 5.687 9.02436L5.1748 9.07506L5.2255 8.56286C5.3373 7.43123 5.39255 6.86508 5.6311 6.36134C5.86965 5.8576 6.27134 5.4559 7.07538 4.65186L10.3396 1.3876Z" stroke="#F96A84" stroke-width="1.25" stroke-linejoin="round"/>
<path d="M3.22497 9.0752H1.76249C1.46081 9.0752 1.17148 9.19504 0.958162 9.40836C0.744842 9.62168 0.625 9.911 0.625 10.2127C0.625 10.5144 0.744842 10.8037 0.958162 11.017C1.17148 11.2303 1.46081 11.3502 1.76249 11.3502H7.93741C8.23909 11.3502 8.52841 11.47 8.74173 11.6833C8.95505 11.8966 9.07489 12.186 9.07489 12.4877C9.07489 12.7893 8.95505 13.0787 8.74173 13.292C8.52841 13.5053 8.23909 13.6251 7.93741 13.6251H6.47493" stroke="#F96A84" stroke-width="1.25" stroke-linecap="round" stroke-linejoin="round"/>
</svg>
