<svg width="28" height="17" viewBox="0 0 28 17" fill="none" xmlns="http://www.w3.org/2000/svg">
<path d="M26.5833 8.5C26.5833 8.5 20.7992 16.25 13.6667 16.25C6.53408 16.25 0.75 8.5 0.75 8.5C0.75 8.5 6.53408 0.75 13.6667 0.75C20.7992 0.75 26.5833 8.5 26.5833 8.5Z" stroke="#667085" stroke-width="1.5" stroke-miterlimit="10" stroke-linecap="round" stroke-linejoin="round"/>
<path d="M13.667 12.375C14.6947 12.375 15.6803 11.9667 16.407 11.24C17.1337 10.5133 17.542 9.52771 17.542 8.5C17.542 7.47229 17.1337 6.48666 16.407 5.75996C15.6803 5.03326 14.6947 4.625 13.667 4.625C12.6393 4.625 11.6537 5.03326 10.927 5.75996C10.2002 6.48666 9.79199 7.47229 9.79199 8.5C9.79199 9.52771 10.2002 10.5133 10.927 11.24C11.6537 11.9667 12.6393 12.375 13.667 12.375Z" stroke="#667085" stroke-width="1.5" stroke-miterlimit="10" stroke-linecap="round" stroke-linejoin="round"/>
</svg>
