<svg width="34" height="50" viewBox="0 0 34 50" fill="none" xmlns="http://www.w3.org/2000/svg">
<path d="M9.25004 17.0001C7.1946 17.0001 5.22335 16.1836 3.76993 14.7301C2.31652 13.2767 1.5 11.3055 1.5 9.25004C1.5 7.1946 2.31652 5.22335 3.76993 3.76993C5.22335 2.31652 7.1946 1.5 9.25004 1.5H16.9989V17.0001M9.25004 17.0001H16.9989M9.25004 17.0001C7.19491 17.0001 5.22395 17.8165 3.77076 19.2697C2.31756 20.7229 1.50116 22.6938 1.50116 24.7489C1.50116 26.8041 2.31756 28.775 3.77076 30.2282C5.22395 31.6814 7.19491 32.4978 9.25004 32.4978H16.9989V17.0001" stroke="#F96A84" stroke-width="3"/>
<path d="M32.4992 24.7491C32.4992 26.8045 31.6826 28.7757 30.2292 30.2292C28.7758 31.6826 26.8046 32.4991 24.7491 32.4991C22.6937 32.4991 20.7224 31.6826 19.269 30.2292C17.8156 28.7757 16.9991 26.8045 16.9991 24.7491C16.9991 22.6936 17.8156 20.7224 19.269 19.269C20.7224 17.8155 22.6937 16.999 24.7491 16.999C26.8046 16.999 28.7758 17.8155 30.2292 19.269C31.6826 20.7224 32.4992 22.6936 32.4992 24.7491ZM9.25022 32.5003H16.9991V40.2491C16.9986 41.7816 16.5438 43.2796 15.692 44.5535C14.8403 45.8275 13.6299 46.8204 12.214 47.4065C10.798 47.9926 9.24005 48.1458 7.73707 47.8465C6.23408 47.5473 4.85358 46.8091 3.77012 45.7253C2.68665 44.6415 1.94887 43.2608 1.65007 41.7577C1.35127 40.2546 1.50485 38.6967 2.09142 37.2809C2.67798 35.8651 3.67117 34.655 4.94542 33.8037C6.21966 32.9523 7.71774 32.5003 9.25022 32.5003Z" stroke="#F96A84" stroke-width="3"/>
<path d="M16.9987 1.5H24.7475C26.803 1.5 28.7742 2.31652 30.2276 3.76993C31.681 5.22335 32.4976 7.1946 32.4976 9.25004C32.4976 11.3055 31.681 13.2767 30.2276 14.7301C28.7742 16.1836 26.803 17.0001 24.7475 17.0001H16.9987V1.5Z" stroke="#F96A84" stroke-width="3"/>
</svg>
