<svg width="11" height="14" viewBox="0 0 11 14" fill="none" xmlns="http://www.w3.org/2000/svg">
<path d="M3 9.875H8M3 7.375H5.5M6.125 0.8125V1.125C6.125 2.8925 6.125 3.77688 6.67437 4.32563C7.22312 4.875 8.1075 4.875 9.875 4.875H10.1875M10.5 5.91062V8C10.5 10.3569 10.5 11.5356 9.7675 12.2675C9.035 12.9994 7.85687 13 5.5 13C3.14313 13 1.96437 13 1.2325 12.2675C0.500625 11.535 0.5 10.3569 0.5 8V5.16C0.5 3.13188 0.5 2.1175 1.05375 1.43063C1.16559 1.29193 1.29193 1.16559 1.43062 1.05375C2.11875 0.5 3.13188 0.5 5.16 0.5C5.60063 0.5 5.82125 0.5 6.02312 0.57125C6.06479 0.58625 6.10583 0.603333 6.14625 0.6225C6.34 0.715 6.49562 0.870625 6.8075 1.1825L9.7675 4.1425C10.1294 4.50375 10.3094 4.685 10.405 4.91437C10.5 5.14437 10.5 5.39937 10.5 5.91062Z" stroke="#0F172A" stroke-linecap="round" stroke-linejoin="round"/>
</svg>
