<svg width="51" height="47" viewBox="0 0 51 47" fill="none" xmlns="http://www.w3.org/2000/svg">
<path d="M1.5 39.9V12.4176C1.5 8.952 1.5 7.2192 2.0832 5.8584C2.8113 4.1627 4.1627 2.8113 5.8584 2.0832C7.2192 1.5 8.9352 1.5 12.42 1.5H13.6056C14.3225 1.50008 15.0302 1.66073 15.6768 1.97013C16.3235 2.27954 16.8926 2.72985 17.3424 3.288L21.7032 8.7M21.7032 8.7H35.1C38.46 8.7 40.14 8.7 41.424 9.3528C42.5527 9.92855 43.4701 10.8468 44.0448 11.976C44.7 13.26 44.7 14.94 44.7 18.3V20.7M21.7032 8.7H13.5" stroke="#F96A84" stroke-width="3" stroke-linecap="round" stroke-linejoin="round"/>
<path d="M4.27915 31.5348L4.99435 29.754C6.75595 25.3692 7.63675 23.178 9.47275 21.9396C11.3088 20.7012 13.6824 20.7012 18.4248 20.7012H37.7688C44.22 20.7012 47.448 20.7012 48.8808 22.8108C50.316 24.9204 49.116 27.9012 46.7208 33.8676L46.0056 35.6484C44.244 40.0332 43.3632 42.2244 41.5272 43.4628C39.6912 44.7012 37.3176 44.7012 32.5752 44.7012H13.2312C6.77995 44.7012 3.55195 44.7012 2.11915 42.5916C0.683946 40.4844 1.88395 37.5012 4.27915 31.5348Z" stroke="#F96A84" stroke-width="3" stroke-linejoin="round"/>
</svg>
