<svg width="40" height="40" viewBox="0 0 40 40" fill="none" xmlns="http://www.w3.org/2000/svg">
<g clip-path="url(#clip0_58_259)">
<path fill-rule="evenodd" clip-rule="evenodd" d="M19.9987 0.416504C8.95498 0.416504 0 9.40573 0 20.497C0 29.367 5.72999 36.893 13.6787 39.5485C14.6787 39.733 15.0437 39.113 15.0437 38.5809C15.0437 38.104 15.0262 36.8416 15.0162 35.1662C9.45248 36.3797 8.27876 32.4744 8.27876 32.4744C7.37001 30.1552 6.05876 29.5377 6.05876 29.5377C4.24251 28.2916 6.19624 28.3166 6.19624 28.3166C8.20249 28.4584 9.25873 30.3861 9.25873 30.3861C11.0437 33.4545 13.94 32.5685 15.08 32.0539C15.2613 30.7563 15.7787 29.8716 16.35 29.3696C11.9087 28.8626 7.23999 27.1408 7.23999 19.4467C7.23999 17.2542 8.01876 15.4622 9.29876 14.0579C9.09251 13.5496 8.40626 11.5091 9.49376 8.74439C9.49376 8.74439 11.1737 8.20474 14.9937 10.8025C16.59 10.357 18.3 10.1349 20.0013 10.1261C21.7 10.1349 23.4112 10.357 25.0087 10.8025C28.8262 8.20474 30.5025 8.74439 30.5025 8.74439C31.5938 11.5091 30.9075 13.5496 30.7012 14.0579C31.9837 15.4622 32.7575 17.2542 32.7575 19.4467C32.7575 27.1596 28.0813 28.8575 23.6263 29.3545C24.3438 29.9744 24.9838 31.1993 24.9838 33.073C24.9838 35.7573 24.9587 37.9221 24.9587 38.5809C24.9587 39.118 25.3188 39.743 26.3338 39.546C34.275 36.8855 40 29.3645 40 20.497C40 9.40573 31.045 0.416504 19.9987 0.416504Z" fill="#667085"/>
</g>
<defs>
<clipPath id="clip0_58_259">
<rect width="40" height="40" fill="white"/>
</clipPath>
</defs>
</svg>
