<svg width="21" height="22" viewBox="0 0 21 22" fill="none" xmlns="http://www.w3.org/2000/svg">
<path opacity="0.987" fill-rule="evenodd" clip-rule="evenodd" d="M9.04277 0.092185C10.1429 -0.0307283 10.7939 -0.0307283 11.976 0.092185C14.0684 0.401889 16.0081 1.3691 17.5146 2.85394C16.4966 3.81621 15.4919 4.79253 14.501 5.78262C12.6032 4.17412 10.4848 3.80285 8.14597 4.66881C6.43026 5.45788 5.23554 6.73659 4.5618 8.50492C3.46081 7.68524 2.37417 6.84647 1.30236 5.98899C1.22787 5.94978 1.1428 5.93543 1.05957 5.94802C2.76213 2.66527 5.42269 0.712822 9.04125 0.0906675" fill="#F44336"/>
<path opacity="0.997" fill-rule="evenodd" clip-rule="evenodd" d="M1.05651 5.94771C1.1425 5.93456 1.22394 5.94822 1.30082 5.98868C2.37263 6.84616 3.45927 7.68493 4.56026 8.50461C4.38701 9.19362 4.27779 9.89717 4.23401 10.6063C4.27144 11.2922 4.38019 11.9654 4.56026 12.626L1.13846 15.3498C-0.351661 12.236 -0.378975 9.10198 1.05651 5.94771Z" fill="#FFC107"/>
<path opacity="0.999" fill-rule="evenodd" clip-rule="evenodd" d="M17.3518 18.6496C16.2863 17.71 15.1709 16.8286 14.0104 16.0092C15.1738 15.1878 15.8799 14.0608 16.1287 12.6284H10.4277V8.66933C13.7155 8.64201 17.0018 8.66983 20.2865 8.75279C20.9096 12.1367 20.1899 15.1878 18.1272 17.906C17.8819 18.1668 17.6221 18.4149 17.3518 18.6496Z" fill="#448AFF"/>
<path opacity="0.993" fill-rule="evenodd" clip-rule="evenodd" d="M4.55999 12.6274C5.80428 15.72 8.08549 17.1636 11.4036 16.9582C12.3351 16.8504 13.2281 16.525 14.0105 16.0083C15.1719 16.8298 16.2857 17.7099 17.3519 18.6487C15.6625 20.1668 13.5084 21.0676 11.2412 21.2041C10.7261 21.2452 10.2086 21.2452 9.69346 21.2041C5.83109 20.7488 2.97933 18.7974 1.13818 15.3497L4.55999 12.6274Z" fill="#43A047"/>
</svg>
