<svg width="14" height="17" viewBox="0 0 14 17" fill="none" xmlns="http://www.w3.org/2000/svg">
<path fill-rule="evenodd" clip-rule="evenodd" d="M4.70413 1.66667L2.11163 7.5H4.98413C5.55913 7.5 5.96413 8.0625 5.78247 8.60833L4.40247 12.7475L10.4841 6.66667H8.34247C8.19899 6.66664 8.0579 6.62993 7.9326 6.56003C7.8073 6.49013 7.70195 6.38936 7.62656 6.26729C7.55116 6.14522 7.50822 6.0059 7.50182 5.86257C7.49541 5.71923 7.52576 5.57664 7.58997 5.44833L9.4808 1.66667H4.70413ZM3.39913 0.5C3.53413 0.195833 3.83497 0 4.1683 0H10.8158C11.4408 0 11.8483 0.658333 11.5683 1.21833L9.67747 5H12.4758C13.2258 5 13.6008 5.90667 13.0708 6.43667L3.10997 16.3975C2.48163 17.0258 1.43497 16.3792 1.71663 15.5367L3.83997 9.16667H0.841635C0.701422 9.16666 0.563432 9.13163 0.440198 9.06475C0.316964 8.99787 0.212391 8.90126 0.135977 8.7837C0.0595628 8.66614 0.0137284 8.53135 0.00263747 8.39158C-0.00845349 8.2518 0.0155503 8.11147 0.0724683 7.98333L3.39913 0.5Z" fill="#9B6DFF"/>
</svg>
