<svg width="10" height="12" viewBox="0 0 10 12" fill="none" xmlns="http://www.w3.org/2000/svg">
<path d="M7 4.29167C7.75833 4.29167 8.1375 4.29167 8.42729 4.43954C8.68194 4.56934 8.88899 4.77639 9.01879 5.03104C9.16667 5.32083 9.16667 5.7 9.16667 6.45833V8.08333C9.16667 9.36004 9.16667 9.99812 8.77017 10.3952C8.37312 10.7917 7.73504 10.7917 6.45833 10.7917H3.20833C1.93162 10.7917 1.293 10.7917 0.8965 10.3952C0.5 9.99812 0.5 9.36004 0.5 8.08333V6.45833C0.5 5.7 0.5 5.32083 0.647333 5.03104C0.777276 4.77631 0.984524 4.56925 1.23937 4.43954C1.52917 4.29167 1.90833 4.29167 2.66667 4.29167M4.83333 7.54167V1.04167M6.45833 2.125C6.45833 2.125 5.26125 0.5 4.83333 0.5C4.40542 0.5 3.20833 2.125 3.20833 2.125" stroke="#F96A84" stroke-linecap="round" stroke-linejoin="round"/>
</svg>
