<svg width="20" height="20" viewBox="0 0 20 20" fill="none" xmlns="http://www.w3.org/2000/svg">
<g clip-path="url(#clip0_73_662)">
<path d="M7.17143 4.979H2.17143C1.79255 4.979 1.42919 5.12951 1.16128 5.39742C0.893369 5.66533 0.742859 6.02869 0.742859 6.40758V17.8361C0.742859 18.215 0.893369 18.5784 1.16128 18.8463C1.42919 19.1142 1.79255 19.2647 2.17143 19.2647H15.0286C15.4075 19.2647 15.7708 19.1142 16.0387 18.8463C16.3066 18.5784 16.4571 18.215 16.4571 17.8361V12.1219M0.742859 8.55043H10.0286" stroke="#667085" stroke-width="1.42857" stroke-linecap="round" stroke-linejoin="round"/>
<path d="M4.31429 15.6931L6.45714 13.5502L4.31429 11.4074M8.6 15.6931H10.7429M10.5657 5.64166C10.0657 5.55451 10.0657 4.83451 10.5657 4.74737C11.4535 4.59239 12.2751 4.17685 12.9261 3.5536C13.5771 2.93036 14.028 2.12758 14.2214 1.24737L14.25 1.1088C14.36 0.613085 15.0643 0.608799 15.1786 1.10451L15.2143 1.26594C15.4139 2.14275 15.8685 2.94089 16.5208 3.55988C17.1731 4.17888 17.9939 4.59105 18.88 4.74451C19.3829 4.83166 19.3829 5.55594 18.88 5.64451C17.9939 5.79798 17.1731 6.21015 16.5208 6.82914C15.8685 7.44814 15.4139 8.24628 15.2143 9.12309L15.1771 9.28309C15.0643 9.77737 14.36 9.77451 14.2514 9.2788L14.2214 9.14308C14.028 8.26288 13.5771 7.46009 12.9261 6.83685C12.2751 6.21361 11.4535 5.79807 10.5657 5.64308" stroke="#667085" stroke-width="1.42857" stroke-linecap="round" stroke-linejoin="round"/>
</g>
<defs>
<clipPath id="clip0_73_662">
<rect width="20" height="20" fill="white"/>
</clipPath>
</defs>
</svg>
