<svg width="53" height="48" viewBox="0 0 53 48" fill="none" xmlns="http://www.w3.org/2000/svg">
<path d="M53 23.8321C53 19.8459 49.2649 16.3535 43.3289 14.0689C43.4098 13.5668 43.5437 13.0368 43.6078 12.5487C44.2132 6.80792 42.8463 2.66555 39.7612 0.883078C36.3162 -1.10861 31.4402 0.364236 26.5084 4.33924C21.5682 0.369815 16.6866 -1.10303 13.25 0.883078C10.1621 2.66555 8.78684 6.80792 9.40332 12.5487C9.45353 13.0368 9.59021 13.5668 9.66832 14.0689C3.73511 16.3535 0 19.8459 0 23.8321C0 27.8182 3.73511 31.3107 9.66832 33.5952C9.59021 34.0973 9.45353 34.6273 9.40332 35.1155C8.79521 40.8562 10.1621 44.9986 13.25 46.7811C14.2988 47.3752 15.4899 47.6793 16.695 47.6625C20.3513 47.3265 23.7956 45.7974 26.4972 43.311C29.1996 45.798 32.645 47.3271 36.3022 47.6625C37.5093 47.6797 38.6992 47.3755 39.75 46.7811C42.8352 44.9986 44.2132 40.8562 43.5967 35.1155C43.5437 34.6273 43.4098 34.0973 43.3177 33.5952C49.2649 31.3107 53 27.8182 53 23.8321ZM36.2353 2.77713C36.9756 2.76033 37.7072 2.94034 38.3553 3.29876C40.3999 4.4815 41.2982 7.74239 40.8212 12.2585C40.7877 12.5542 40.7012 12.8778 40.6594 13.1791C38.3106 12.5003 35.921 12.014 33.4904 11.7202C32.02 9.75572 30.3901 7.91587 28.6172 6.21934C30.7348 4.3045 33.3987 3.10078 36.2353 2.77713ZM14.151 27.2715C14.6308 28.2199 15.0855 29.1683 15.6266 30.1084C16.1678 31.0484 16.7285 31.9383 17.3003 32.8114C15.7868 32.5502 14.2899 32.2 12.8176 31.7626C13.1718 30.2402 13.6171 28.7405 14.151 27.2715ZM12.8148 15.9016C14.2871 15.4641 15.784 15.1139 17.2975 14.8528C16.7248 15.7231 16.1669 16.6241 15.6238 17.5558C15.0799 18.4902 14.628 19.4442 14.1482 20.3927C13.6164 18.9235 13.1719 17.4265 12.8148 15.9016ZM15.5708 23.8321C16.3119 22.1633 17.1387 20.5339 18.0479 18.9505C18.9703 17.3661 19.9708 15.8319 21.0494 14.3479C22.7761 14.1777 24.592 14.0689 26.5 14.0689C28.4061 14.0708 30.2212 14.1638 31.9451 14.3479C33.0237 15.8353 34.0282 17.3751 34.9549 18.9617C35.8624 20.5442 36.6872 22.1677 37.4292 23.8321C35.9457 27.1758 34.12 30.3569 31.9813 33.3247C28.3358 33.6998 24.6614 33.6998 21.0159 33.3247C19.9497 31.8374 18.9573 30.2985 18.0423 28.7137C17.135 27.1301 16.3101 25.5007 15.5708 23.8321ZM37.3734 30.1084C37.9313 29.1683 38.372 28.2199 38.8518 27.2715C39.3836 28.7425 39.8281 30.2404 40.1852 31.7653C38.7113 32.197 37.2148 32.5471 35.7025 32.8142C36.2659 31.9383 36.8294 31.0429 37.3678 30.1084H37.3734ZM38.8518 20.3927C38.372 19.4442 37.9173 18.4958 37.3734 17.5558C36.8413 16.6381 36.2832 15.7358 35.6997 14.85C37.2134 15.114 38.7067 15.4637 40.1796 15.8988C39.8255 17.4221 39.3802 18.9228 38.8462 20.3927H38.8518ZM26.4972 8.04366C27.613 9.09064 28.6637 10.1999 29.6493 11.3715C28.6172 11.3138 27.5674 11.2832 26.5 11.2794C24.8988 11.2739 24.38 11.3157 23.3451 11.3715C24.3307 10.1999 25.3814 9.09064 26.4972 8.04366ZM14.6447 3.30155C15.2928 2.94313 16.0244 2.76312 16.7647 2.77992C19.599 3.10392 22.2608 4.30657 24.3772 6.21934C22.6044 7.91587 20.9744 9.75572 19.504 11.7202C17.0753 12.014 14.6866 12.5012 12.3378 13.1819C12.296 12.8778 12.2067 12.5542 12.1761 12.2585C11.6991 7.74239 12.5973 4.48429 14.6447 3.30155ZM2.78947 23.8321C2.78947 21.3216 5.50642 18.7273 10.1676 16.8417C10.7757 19.2322 11.5735 21.5698 12.5554 23.8321C11.5735 26.0943 10.7757 28.4347 10.1676 30.8225C5.50642 28.9368 2.78947 26.3426 2.78947 23.8321ZM14.6447 44.3654C12.5973 43.1854 11.6991 39.9218 12.1761 35.4056C12.2067 35.1099 12.296 34.7863 12.3378 34.4823C14.6847 35.1611 17.0688 35.6483 19.4901 35.944C20.972 37.916 22.6111 39.7649 24.3912 41.4727C20.4273 44.5662 16.8205 45.6234 14.6447 44.3654ZM23.32 36.2899C24.3614 36.3512 25.4214 36.3828 26.5 36.3847C27.5786 36.3828 28.6377 36.3512 29.6772 36.2899C28.6854 37.4817 27.6236 38.6135 26.4972 39.6791C25.3718 38.6134 24.3109 37.4816 23.32 36.2899ZM38.3553 44.3654C36.1739 45.6234 32.5671 44.5662 28.5921 41.4699C30.3757 39.7665 32.015 37.9182 33.4932 35.944C35.9133 35.6491 38.3059 35.1613 40.6482 34.4851C40.6901 34.7863 40.7765 35.1099 40.81 35.4056C41.2982 39.9218 40.3972 43.1854 38.3553 44.3654ZM42.8184 30.8253C42.2137 28.4347 41.4189 26.0961 40.4418 23.8321C41.4255 21.5633 42.2215 19.2322 42.8296 16.8389C47.4908 18.7273 50.2105 21.3216 50.2105 23.8321C50.2105 26.3426 47.4908 28.9368 42.8296 30.8253H42.8184Z" fill="#F96A84"/>
<path d="M26.4914 28.7777C27.4798 28.781 28.4471 28.4912 29.2708 27.9449C30.0945 27.3987 30.7378 26.6205 31.1194 25.7087C31.501 24.7969 31.6036 23.7924 31.4144 22.8223C31.2253 21.8521 30.7527 20.9598 30.0565 20.2582C29.3604 19.5566 28.4718 19.0771 27.5032 18.8803C26.5345 18.6836 25.5293 18.7784 24.6145 19.1528C23.6998 19.5272 22.9166 20.1644 22.3639 20.9839C21.8112 21.8034 21.5139 22.7683 21.5094 23.7567V23.7734C21.5069 24.4294 21.6338 25.0795 21.883 25.6864C22.1322 26.2932 22.4987 26.8449 22.9615 27.3098C23.4244 27.7747 23.9744 28.1437 24.5802 28.3956C25.1859 28.6475 25.8354 28.7774 26.4914 28.7777Z" fill="#F96A84"/>
</svg>
