<svg width="40" height="40" viewBox="0 0 40 40" fill="none" xmlns="http://www.w3.org/2000/svg">
<path d="M15.8889 9.72222L14.8282 12.5877C13.4387 16.3452 12.7439 18.224 11.3728 19.5951C10.0018 20.9661 8.123 21.6609 4.36544 23.0504L1.5 24.1111L4.36544 25.1718C8.123 26.5613 10.0018 27.2582 11.3728 28.6272C12.7439 29.9962 13.4387 31.877 14.8282 35.6346L15.8889 38.5L16.9496 35.6346C18.3391 31.877 19.0359 29.9982 20.4049 28.6272C21.7739 27.2561 23.6548 26.5613 27.4123 25.1718L30.2778 24.1111L27.4123 23.0504C23.6548 21.6609 21.776 20.9661 20.4049 19.5951C19.0339 18.224 18.3391 16.3452 16.9496 12.5877L15.8889 9.72222ZM32.3333 1.5L31.8791 2.72717C31.2829 4.33872 30.9849 5.1445 30.3991 5.73033C29.8112 6.31822 29.0054 6.61628 27.3938 7.21033L26.1667 7.66667L27.3959 8.12094C29.0054 8.71706 29.8112 9.01511 30.397 9.60094C30.9849 10.1888 31.2829 10.9946 31.877 12.6062L32.3333 13.8333L32.7876 12.6062C33.3837 10.9946 33.6818 10.1888 34.2676 9.603C34.8555 9.01511 35.6613 8.71706 37.2728 8.123L38.5 7.66667L37.2708 7.21239C35.6613 6.61628 34.8555 6.31822 34.2697 5.73239C33.6818 5.1445 33.3837 4.33872 32.7897 2.72717L32.3333 1.5Z" stroke="#F96A84" stroke-width="3" stroke-linejoin="round"/>
</svg>
