<svg width="52" height="52" viewBox="0 0 52 52" fill="none" xmlns="http://www.w3.org/2000/svg">
<path d="M29.4268 45.9349L9.16283 49.6955C5.27731 50.415 3.33318 50.7762 2.2145 49.6575C1.09581 48.5388 1.45423 46.5947 2.17649 42.7064L5.93983 22.4425C6.54262 19.1951 6.84672 17.5686 7.91653 16.5884C8.98634 15.6082 10.9468 15.4154 14.8649 15.0299C18.6391 14.6633 22.2123 13.3708 25.9377 9.64551L42.2292 25.937C38.5039 29.6624 37.2087 33.2329 36.8394 37.0098C36.4566 40.9279 36.2638 42.8884 35.2836 43.9582C34.3007 45.028 32.6769 45.3294 29.4268 45.9349Z" stroke="#F96A84" stroke-width="3" stroke-linejoin="round"/>
<path d="M23.2226 34.6531C21.7106 34.4273 20.3093 33.7275 19.2203 32.6546C18.1474 31.5656 17.4477 30.1643 17.2219 28.6523M19.223 32.6546L4.21582 47.6591" stroke="#F96A84" stroke-width="3" stroke-linecap="round"/>
<path d="M25.9375 9.64563C27.8708 6.79461 30.491 1.99133 34.3738 1.52973C37.0212 1.21476 39.2178 3.40869 43.6057 7.79926L44.0754 8.269C48.466 12.6568 50.6599 14.8535 50.3449 17.5009C49.8833 21.3837 45.0828 24.0039 42.229 25.9372" stroke="#F96A84" stroke-width="3" stroke-linejoin="round"/>
</svg>
