<svg width="13" height="15" viewBox="0 0 13 15" fill="none" xmlns="http://www.w3.org/2000/svg">
<path d="M10.232 4.62795C10.232 3.5663 9.81023 2.54813 9.05953 1.79744C8.30883 1.04674 7.29067 0.625 6.22902 0.625C5.16737 0.625 4.14921 1.04674 3.39851 1.79744C2.64781 2.54813 2.22607 3.5663 2.22607 4.62795C2.22607 5.68959 2.64781 6.70776 3.39851 7.45846C4.14921 8.20916 5.16737 8.63089 6.22902 8.63089C7.29067 8.63089 8.30883 8.20916 9.05953 7.45846C9.81023 6.70776 10.232 5.68959 10.232 4.62795Z" stroke="#F96A84" stroke-width="1.25" stroke-linecap="round" stroke-linejoin="round"/>
<path d="M11.8333 14.235C11.8333 13.499 11.6883 12.7703 11.4067 12.0904C11.125 11.4105 10.7122 10.7927 10.1918 10.2723C9.67145 9.75188 9.05366 9.33908 8.37373 9.05745C7.69381 8.77581 6.96507 8.63086 6.22913 8.63086C5.49318 8.63086 4.76444 8.77581 4.08452 9.05745C3.4046 9.33908 2.7868 9.75188 2.26641 10.2723C1.74602 10.7927 1.33322 11.4105 1.05159 12.0904C0.769955 12.7703 0.625 13.499 0.625 14.235" stroke="#F96A84" stroke-width="1.25" stroke-linecap="round" stroke-linejoin="round"/>
</svg>
