<svg width="40" height="40" viewBox="0 0 40 40" fill="none" xmlns="http://www.w3.org/2000/svg">
<path fill-rule="evenodd" clip-rule="evenodd" d="M15.87 25.2251L15.8687 13.9066L26.6763 19.5854L15.87 25.2251ZM39.6 11.9453C39.6 11.9453 39.2087 9.1695 38.01 7.94714C36.4888 6.34209 34.7837 6.33452 34.0025 6.24136C28.405 5.83349 20.0087 5.8335 20.0087 5.8335H19.9913C19.9913 5.8335 11.595 5.83349 5.99751 6.24136C5.215 6.33452 3.51125 6.34209 1.98875 7.94714C0.790004 9.1695 0.399996 11.9453 0.399996 11.9453C0.399996 11.9453 0 15.2058 0 18.465V21.5215C0 24.782 0.399996 28.0412 0.399996 28.0412C0.399996 28.0412 0.790004 30.817 1.98875 32.0393C3.51125 33.6444 5.50999 33.5941 6.39999 33.7615C9.59999 34.0712 20 34.1668 20 34.1668C20 34.1668 28.405 34.1542 34.0025 33.7464C34.7837 33.652 36.4888 33.6444 38.01 32.0393C39.2087 30.817 39.6 28.0412 39.6 28.0412C39.6 28.0412 40 24.782 40 21.5215V18.465C40 15.2058 39.6 11.9453 39.6 11.9453Z" fill="#667085"/>
</svg>
