<svg width="24" height="24" viewBox="0 0 24 24" fill="none" xmlns="http://www.w3.org/2000/svg">
<path d="M12.8252 12.0005C12.8252 10.067 14.3537 8.50098 16.2377 8.50098C18.1232 8.50098 19.6502 10.0655 19.6502 12.0005C19.6502 13.934 18.1232 15.5 16.2377 15.5C14.3552 15.5 12.8252 13.9355 12.8252 12.0005Z" fill="#1ABCFE"/>
<path d="M6 19C6 17.0665 7.5285 15.499 9.4125 15.499H12.825V19C12.825 20.932 11.2965 22.4995 9.4125 22.4995C7.5285 22.4995 6 20.932 6 19Z" fill="#0ACF83"/>
<path d="M12.8252 1.5V8.5005H16.2377C18.1232 8.5005 19.6502 6.933 19.6502 4.9995C19.6502 3.0675 18.1232 1.5 16.2377 1.5H12.8252Z" fill="#FF7262"/>
<path d="M6 4.9995C6 6.933 7.5285 8.5005 9.4125 8.5005H12.825V1.5H9.4125C7.5285 1.5 6 3.0675 6 4.9995Z" fill="#F24E1E"/>
<path d="M6 12.0005C6 13.934 7.5285 15.5 9.4125 15.5H12.825V8.50098H9.4125C7.5285 8.50098 6 10.0655 6 12.0005Z" fill="#A259FF"/>
</svg>
