<svg width="24" height="24" viewBox="0 0 24 24" fill="none" xmlns="http://www.w3.org/2000/svg">
<g clip-path="url(#clip0_28_247)">
<path fill-rule="evenodd" clip-rule="evenodd" d="M11.9992 0.25C5.37299 0.25 0 5.64353 0 12.2983C0 17.6203 3.43799 22.1359 8.20724 23.7292C8.80725 23.8399 9.02625 23.4679 9.02625 23.1486C9.02625 22.8625 9.01573 22.105 9.00974 21.0998C5.67148 21.8279 4.96725 19.4847 4.96725 19.4847C4.422 18.0932 3.63525 17.7227 3.63525 17.7227C2.5455 16.975 3.71774 16.9901 3.71774 16.9901C4.92149 17.0752 5.55524 18.2317 5.55524 18.2317C6.62624 20.0728 8.364 19.5412 9.048 19.2325C9.15675 18.4539 9.46725 17.923 9.81 17.6219C7.14525 17.3177 4.34399 16.2846 4.34399 11.6681C4.34399 10.3526 4.81125 9.27739 5.57925 8.43481C5.4555 8.12986 5.04376 6.90553 5.69626 5.24673C5.69626 5.24673 6.70425 4.92294 8.99625 6.4816C9.954 6.21429 10.98 6.08102 12.0008 6.07574C13.02 6.08102 14.0467 6.21429 15.0052 6.4816C17.2957 4.92294 18.3015 5.24673 18.3015 5.24673C18.9563 6.90553 18.5445 8.12986 18.4207 8.43481C19.1902 9.27739 19.6545 10.3526 19.6545 11.6681C19.6545 16.2959 16.8488 17.3146 14.1758 17.6128C14.6063 17.9848 14.9903 18.7197 14.9903 19.8439C14.9903 21.4545 14.9753 22.7533 14.9753 23.1486C14.9753 23.4709 15.1913 23.8459 15.8003 23.7277C20.565 22.1314 24 17.6188 24 12.2983C24 5.64353 18.627 0.25 11.9992 0.25Z" fill="#0F172A"/>
</g>
<defs>
<clipPath id="clip0_28_247">
<rect width="24" height="24" fill="white"/>
</clipPath>
</defs>
</svg>
