<svg width="24" height="24" viewBox="0 0 24 24" fill="none" xmlns="http://www.w3.org/2000/svg">
<path d="M2.25 1.5C2.05469 1.5 1.88086 1.57422 1.72852 1.72266C1.57617 1.8711 1.5 2.04688 1.5 2.25V21.75C1.5 21.9531 1.57617 22.1289 1.72852 22.2773C1.88086 22.4258 2.05469 22.5 2.25 22.5H21.75C21.9453 22.5 22.1191 22.4258 22.2715 22.2773C22.4238 22.1289 22.5 21.9531 22.5 21.75V2.25C22.5 2.04688 22.4238 1.8711 22.2715 1.72266C22.1191 1.57422 21.9453 1.5 21.75 1.5H2.25ZM6.19922 6.75H10.2422L13.7578 12V6.75H17.8008V17.25H13.7578L10.2422 12V17.25H6.19922V6.75Z" fill="#2DB400"/>
</svg>
