<svg width="24" height="24" viewBox="0 0 24 24" fill="none" xmlns="http://www.w3.org/2000/svg">
<path d="M5.21269 4.98714C5.88453 5.53293 6.13656 5.49128 7.3981 5.40712L19.2916 4.69298C19.5437 4.69298 19.334 4.44133 19.25 4.39951L17.2746 2.97157C16.8962 2.67775 16.3919 2.34124 15.4255 2.42541L3.90912 3.26538C3.48914 3.30703 3.40523 3.51701 3.57251 3.68535L5.21269 4.98714ZM5.92675 7.75887V20.2728C5.92675 20.9453 6.26283 21.197 7.01928 21.1554L20.0901 20.3991C20.8469 20.3575 20.9312 19.8948 20.9312 19.3485V6.91855C20.9312 6.37309 20.7215 6.07893 20.2581 6.12092L6.59894 6.91855C6.09488 6.9609 5.92675 7.21304 5.92675 7.75887ZM18.8303 8.43015C18.9141 8.80848 18.8303 9.18647 18.4512 9.22898L17.8215 9.35445V18.593C17.2746 18.8869 16.7704 19.0549 16.3503 19.0549C15.6776 19.0549 15.5091 18.8448 15.0052 18.2152L10.8857 11.7482V18.0053L12.1892 18.2994C12.1892 18.2994 12.1892 19.0549 11.1376 19.0549L8.23826 19.2231C8.15403 19.0549 8.23826 18.6354 8.53234 18.5512L9.28893 18.3416V10.0686L8.23843 9.98444C8.15419 9.6061 8.36402 9.06064 8.95283 9.01829L12.0632 8.80864L16.3503 15.3599V9.56444L15.2572 9.43898C15.1733 8.97648 15.5091 8.64064 15.9294 8.599L18.8303 8.43015ZM2.94218 2.13159L14.9211 1.24945C16.3922 1.12329 16.7706 1.2078 17.6952 1.87943L21.5189 4.56698C22.15 5.02914 22.3602 5.15496 22.3602 5.65877V20.3991C22.3602 21.3228 22.0237 21.8692 20.8471 21.9527L6.93606 22.7928C6.05285 22.8349 5.6325 22.709 5.16997 22.1207L2.35405 18.4672C1.84947 17.7948 1.63965 17.2916 1.63965 16.7029V3.60085C1.63965 2.8454 1.97626 2.21525 2.94218 2.13159Z" fill="black"/>
</svg>
